<svg width="44" height="55" viewBox="0 0 44 55" fill="none" xmlns="http://www.w3.org/2000/svg">
<path d="M9.77678 53.1584V52.7543H10.9518C10.9629 52.9263 10.9441 53.089 10.8954 53.2424C10.8467 53.3937 10.7715 53.5273 10.6697 53.6434C10.5679 53.7594 10.4407 53.8506 10.288 53.9169C10.1375 53.9811 9.96267 54.0133 9.7635 54.0133C9.51787 54.0133 9.29879 53.9646 9.10627 53.8672C8.91596 53.7698 8.76548 53.6351 8.65484 53.4631C8.5464 53.289 8.49219 53.087 8.49219 52.8569C8.49219 52.6269 8.54862 52.4269 8.66148 52.257C8.77433 52.085 8.92813 51.9524 9.12287 51.8591C9.3176 51.7659 9.53779 51.7192 9.78342 51.7192C10.0291 51.7192 10.2382 51.7679 10.4108 51.8653C10.5834 51.9607 10.7239 52.084 10.8323 52.2352L10.3311 52.4777C10.278 52.3927 10.2072 52.3212 10.1187 52.2632C10.0324 52.2052 9.92062 52.1762 9.78342 52.1762C9.65507 52.1762 9.53668 52.2031 9.42825 52.257C9.32203 52.3109 9.23683 52.3886 9.17266 52.4901C9.1107 52.5917 9.07971 52.7139 9.07971 52.8569C9.07971 52.9999 9.10959 53.1243 9.16934 53.2299C9.2313 53.3336 9.31539 53.4144 9.42161 53.4724C9.52783 53.5284 9.64843 53.5563 9.78342 53.5563C9.95381 53.5563 10.0888 53.519 10.1884 53.4444C10.288 53.3677 10.3566 53.2724 10.3942 53.1584H9.77678Z" fill="#28282E"/>
<path d="M15.1457 51.769H15.9921C16.2887 51.769 16.5133 51.8353 16.666 51.9679C16.8209 52.1005 16.8983 52.2715 16.8983 52.4808C16.8983 52.63 16.8585 52.7616 16.7788 52.8756C16.7014 52.9875 16.5863 53.0704 16.4336 53.1243L17.0377 53.9449H16.3772L15.8793 53.1926H15.7067V53.9449H15.1457V51.769ZM15.9523 52.2166H15.7067V52.7823H15.9523C16.0652 52.7823 16.1537 52.7575 16.2179 52.7077C16.282 52.658 16.3141 52.5886 16.3141 52.4995C16.3141 52.4083 16.282 52.3389 16.2179 52.2912C16.1537 52.2415 16.0652 52.2166 15.9523 52.2166Z" fill="#28282E"/>
<path d="M20.9793 52.8569C20.9793 52.6891 21.0103 52.5357 21.0723 52.3969C21.1365 52.258 21.225 52.1378 21.3378 52.0363C21.4529 51.9348 21.5857 51.857 21.7362 51.8032C21.8889 51.7472 22.0537 51.7192 22.2307 51.7192C22.41 51.7192 22.576 51.7472 22.7287 51.8032C22.8813 51.857 23.013 51.9348 23.1237 52.0363C23.2365 52.1378 23.3239 52.258 23.3859 52.3969C23.4501 52.5357 23.4821 52.6891 23.4821 52.8569C23.4821 53.0248 23.4512 53.1792 23.3892 53.3201C23.3295 53.461 23.2432 53.5833 23.1303 53.6869C23.0174 53.7905 22.8847 53.8713 22.732 53.9293C22.5815 53.9853 22.4144 54.0133 22.2307 54.0133C22.0493 54.0133 21.8822 53.9853 21.7295 53.9293C21.5768 53.8713 21.4441 53.7905 21.3312 53.6869C21.2183 53.5833 21.1309 53.461 21.069 53.3201C21.0092 53.1792 20.9793 53.0248 20.9793 52.8569ZM21.5735 52.8569C21.5735 52.9854 21.6001 53.0994 21.6532 53.1989C21.7085 53.2963 21.786 53.3729 21.8855 53.4289C21.9851 53.4848 22.1002 53.5128 22.2307 53.5128C22.3635 53.5128 22.4786 53.4848 22.576 53.4289C22.6733 53.3729 22.7486 53.2963 22.8017 53.1989C22.857 53.0994 22.8847 52.9854 22.8847 52.8569C22.8847 52.7284 22.8581 52.6155 22.805 52.5181C22.7519 52.4186 22.6766 52.3409 22.5793 52.285C22.4819 52.229 22.3657 52.201 22.2307 52.201C22.1002 52.201 21.9851 52.229 21.8855 52.285C21.786 52.3409 21.7085 52.4186 21.6532 52.5181C21.6001 52.6155 21.5735 52.7284 21.5735 52.8569Z" fill="#28282E"/>
<path d="M27.6389 51.769H28.1999V53.1926C28.1999 53.3025 28.2309 53.3916 28.2929 53.46C28.3548 53.5284 28.4478 53.5625 28.5717 53.5625C28.6956 53.5625 28.7886 53.5284 28.8505 53.46C28.9147 53.3916 28.9468 53.3025 28.9468 53.1926V51.769H29.5078V53.2299C29.5078 53.4123 29.4657 53.5636 29.3816 53.6838C29.2997 53.8019 29.188 53.89 29.0464 53.948C28.9047 54.006 28.7465 54.035 28.5717 54.035C28.3969 54.035 28.2386 54.006 28.097 53.948C27.9576 53.89 27.8459 53.8019 27.7618 53.6838C27.6799 53.5636 27.6389 53.4123 27.6389 53.2299V51.769Z" fill="#28282E"/>
<path d="M33.8003 51.769H34.6069C34.9034 51.769 35.128 51.8322 35.2807 51.9586C35.4334 52.085 35.5097 52.2591 35.5097 52.4808C35.5097 52.7005 35.4334 52.8745 35.2807 53.003C35.128 53.1294 34.9034 53.1926 34.6069 53.1926H34.3612V53.9449H33.8003V51.769ZM34.6069 52.201H34.3612V52.7575H34.6069C34.7197 52.7575 34.8082 52.7336 34.8724 52.686C34.9366 52.6383 34.9687 52.5699 34.9687 52.4808C34.9687 52.3896 34.9366 52.3202 34.8724 52.2725C34.8082 52.2249 34.7197 52.201 34.6069 52.201Z" fill="#28282E"/>
<path d="M21.7572 0L0 29.0439L9.90728 24.1228L14.5695 18.1404H27.3907L23.6998 13.4123H18.2605L21.7572 8.39474L33.9956 24.1228L44 29.0439L21.7572 0Z" fill="#28282E"/>
<path d="M14.8609 26.2456L11.7528 30.0088V40.1404H14.8609V26.2456Z" fill="#28282E"/>
<path d="M29.4305 26.2456H16.6093L20.883 29.1404H27.8764V31.0702H30.7903V27.5965C30.7903 26.8504 30.1815 26.2456 29.4305 26.2456Z" fill="#28282E"/>
<path d="M28.4592 34.5439H16.6093V33.9649C16.6093 32.6859 17.653 31.6491 18.9404 31.6491H30.7903V32.2281C30.7903 33.507 29.7466 34.5439 28.4592 34.5439Z" fill="#28282E"/>
<path d="M19.4261 35.2193H16.6093V40.1404H32.3444L27.8764 37.1491H19.4261V35.2193Z" fill="#28282E"/>
</svg>
