<svg width="101" height="125" viewBox="0 0 101 125" fill="none" xmlns="http://www.w3.org/2000/svg">
<path d="M22.4409 122.023V121.095H25.1382C25.1636 121.49 25.1204 121.864 25.0087 122.216C24.8969 122.563 24.7242 122.87 24.4905 123.136C24.2569 123.402 23.9648 123.612 23.6143 123.764C23.2689 123.911 22.8676 123.985 22.4104 123.985C21.8466 123.985 21.3437 123.873 20.9018 123.65C20.4649 123.426 20.1195 123.117 19.8655 122.722C19.6166 122.323 19.4922 121.859 19.4922 121.331C19.4922 120.803 19.6217 120.344 19.8808 119.954C20.1398 119.559 20.4929 119.254 20.9399 119.04C21.3869 118.826 21.8923 118.719 22.4562 118.719C23.02 118.719 23.5 118.831 23.8962 119.055C24.2924 119.273 24.615 119.556 24.8639 119.904L23.7134 120.46C23.5915 120.265 23.4289 120.101 23.2257 119.968C23.0276 119.835 22.7711 119.768 22.4562 119.768C22.1615 119.768 21.8898 119.83 21.6409 119.954C21.397 120.077 21.2015 120.256 21.0542 120.489C20.9119 120.722 20.8408 121.003 20.8408 121.331C20.8408 121.659 20.9094 121.944 21.0466 122.187C21.1888 122.425 21.3818 122.61 21.6256 122.744C21.8695 122.872 22.1463 122.936 22.4562 122.936C22.8473 122.936 23.1571 122.851 23.3857 122.679C23.6143 122.503 23.7718 122.285 23.8581 122.023H22.4409Z" fill="white"/>
<path d="M34.765 118.833H36.708C37.3886 118.833 37.9042 118.986 38.2547 119.29C38.6103 119.595 38.7881 119.987 38.7881 120.467C38.7881 120.81 38.6967 121.112 38.5138 121.374C38.336 121.63 38.0719 121.821 37.7214 121.944L39.1081 123.828H37.5918L36.4489 122.101H36.0527V123.828H34.765V118.833ZM36.6165 119.861H36.0527V121.16H36.6165C36.8756 121.16 37.0788 121.102 37.2261 120.988C37.3734 120.874 37.4471 120.715 37.4471 120.51C37.4471 120.301 37.3734 120.142 37.2261 120.032C37.0788 119.918 36.8756 119.861 36.6165 119.861Z" fill="white"/>
<path d="M48.1559 121.331C48.1559 120.945 48.227 120.593 48.3692 120.275C48.5166 119.956 48.7197 119.68 48.9788 119.447C49.2429 119.214 49.5477 119.036 49.8931 118.912C50.2436 118.783 50.6221 118.719 51.0284 118.719C51.4399 118.719 51.8209 118.783 52.1713 118.912C52.5218 119.036 52.8241 119.214 53.0781 119.447C53.3371 119.68 53.5378 119.956 53.68 120.275C53.8273 120.593 53.901 120.945 53.901 121.331C53.901 121.716 53.8298 122.07 53.6876 122.394C53.5505 122.717 53.3524 122.998 53.0933 123.236C52.8342 123.474 52.5295 123.659 52.179 123.792C51.8335 123.921 51.45 123.985 51.0284 123.985C50.6119 123.985 50.2284 123.921 49.8779 123.792C49.5274 123.659 49.2226 123.474 48.9636 123.236C48.7045 122.998 48.5039 122.717 48.3616 122.394C48.2245 122.07 48.1559 121.716 48.1559 121.331ZM49.5198 121.331C49.5198 121.626 49.5807 121.887 49.7026 122.116C49.8296 122.339 50.0074 122.515 50.236 122.644C50.4646 122.772 50.7287 122.836 51.0284 122.836C51.3332 122.836 51.5973 122.772 51.8209 122.644C52.0444 122.515 52.2171 122.339 52.339 122.116C52.466 121.887 52.5295 121.626 52.5295 121.331C52.5295 121.036 52.4685 120.777 52.3466 120.553C52.2247 120.325 52.052 120.146 51.8285 120.018C51.605 119.889 51.3383 119.825 51.0284 119.825C50.7287 119.825 50.4646 119.889 50.236 120.018C50.0074 120.146 49.8296 120.325 49.7026 120.553C49.5807 120.777 49.5198 121.036 49.5198 121.331Z" fill="white"/>
<path d="M63.4427 118.833H64.7304V122.101C64.7304 122.353 64.8015 122.558 64.9437 122.715C65.086 122.872 65.2993 122.95 65.5838 122.95C65.8682 122.95 66.0816 122.872 66.2238 122.715C66.3711 122.558 66.4448 122.353 66.4448 122.101V118.833H67.7325V122.187C67.7325 122.606 67.6359 122.953 67.4429 123.229C67.255 123.5 66.9985 123.702 66.6734 123.835C66.3483 123.968 65.9851 124.035 65.5838 124.035C65.1825 124.035 64.8193 123.968 64.4942 123.835C64.1742 123.702 63.9177 123.5 63.7246 123.229C63.5367 122.953 63.4427 122.606 63.4427 122.187V118.833Z" fill="white"/>
<path d="M77.5857 118.833H79.4372C80.1179 118.833 80.6335 118.978 80.984 119.269C81.3345 119.559 81.5097 119.958 81.5097 120.467C81.5097 120.972 81.3345 121.371 80.984 121.666C80.6335 121.956 80.1179 122.101 79.4372 122.101H78.8734V123.828H77.5857V118.833ZM79.4372 119.825H78.8734V121.102H79.4372C79.6963 121.102 79.8995 121.048 80.0468 120.938C80.1941 120.829 80.2678 120.672 80.2678 120.467C80.2678 120.258 80.1941 120.099 80.0468 119.989C79.8995 119.88 79.6963 119.825 79.4372 119.825Z" fill="white"/>
<path d="M49.9426 0L0 66.6689L22.7417 55.3728L33.4437 41.6404H62.8742L54.4018 30.7873H41.9161L49.9426 19.2697L78.0353 55.3728L101 66.6689L49.9426 0Z" fill="white"/>
<path d="M34.1126 60.2456L26.9779 68.8838V92.1404H34.1126V60.2456Z" fill="white"/>
<path d="M67.5563 60.2456H38.1258L47.936 66.8904H63.989V71.3202H70.6777V63.3465C70.6777 61.6339 69.2802 60.2456 67.5563 60.2456Z" fill="white"/>
<path d="M65.3267 79.2939H38.1258V77.9649C38.1258 75.0291 40.5215 72.6491 43.4768 72.6491H70.6777V73.9781C70.6777 76.9139 68.282 79.2939 65.3267 79.2939Z" fill="white"/>
<path d="M44.5916 80.8443H38.1258V92.1404H74.245L63.989 85.2741H44.5916V80.8443Z" fill="white"/>
</svg>
